<?xml version="1.0" standalone="no"?>
<!DOCTYPE svg PUBLIC "-//W3C//DTD SVG 1.1//EN" "http://www.w3.org/Graphics/SVG/1.1/DTD/svg11.dtd" >
<svg xmlns="http://www.w3.org/2000/svg">
<metadata>Generated by IcoMoon</metadata>
<defs>
<font id="Apollo_OS_Web_iconfont" horiz-adv-x="1024">
<font-face units-per-em="1024" ascent="960" descent="-64" />
<missing-glyph horiz-adv-x="1024" />
<glyph unicode="&#x20;" horiz-adv-x="512" d="" />
<glyph unicode="&#xe900;" glyph-name="add001" d="M477.867 482.133v170.667c0 18.851 15.282 34.133 34.133 34.133s34.133-15.282 34.133-34.133v-170.667h170.667c18.851 0 34.133-15.282 34.133-34.133s-15.282-34.133-34.133-34.133h-170.667v-170.667c0-18.851-15.282-34.133-34.133-34.133s-34.133 15.282-34.133 34.133v170.667h-170.667c-18.851 0-34.133 15.282-34.133 34.133s15.282 34.133 34.133 34.133h170.667z" />
<glyph unicode="&#xe901;" glyph-name="add002" d="M480.664 471.502v423.030c0 12.98 10.522 23.502 23.502 23.502s23.502-10.522 23.502-23.502v-423.030h423.030c12.98 0 23.502-10.522 23.502-23.502s-10.522-23.502-23.502-23.502h-423.030v-423.030c0-12.98-10.522-23.502-23.502-23.502s-23.502 10.522-23.502 23.502v423.030h-423.030c-12.98 0-23.502 10.522-23.502 23.502s10.522 23.502 23.502 23.502h423.030z" />
<glyph unicode="&#xe902;" glyph-name="alert" d="M512 209.067c-131.959 0-238.933 106.974-238.933 238.933s106.974 238.933 238.933 238.933c131.959 0 238.933-106.974 238.933-238.933s-106.974-238.933-238.933-238.933zM482.133 448v-89.6c0-16.495 13.372-29.867 29.867-29.867s29.867 13.372 29.867 29.867v89.6c0 16.495-13.372 29.867-29.867 29.867s-29.867-13.372-29.867-29.867zM512 507.733c16.495 0 29.867 13.372 29.867 29.867s-13.372 29.867-29.867 29.867c-16.495 0-29.867-13.372-29.867-29.867s13.372-29.867 29.867-29.867z" />
<glyph unicode="&#xe903;" glyph-name="back" d="M430.491 550.4h149.776c75.405 0 136.533-61.128 136.533-136.533s-61.128-136.533-136.533-136.533h-170.667c-18.851 0-34.133 15.282-34.133 34.133s15.282 34.133 34.133 34.133h170.667c37.703 0 68.267 30.564 68.267 68.267s-30.564 68.267-68.267 68.267h-149.776l9.367-18.718c17.281-34.535-27.23-66.592-54.554-39.289l-68.127 68.073c-13.303 13.292-13.303 34.843 0 48.135l68.127 68.073c27.324 27.302 71.835-4.754 54.554-39.289l-9.367-18.718z" />
<glyph unicode="&#xe904;" glyph-name="delete" d="M750.933 550.4v-341.333c0-18.851-15.282-34.133-34.133-34.133h-409.6c-18.851 0-34.133 15.282-34.133 34.133v341.333c-18.851 0-34.133 15.282-34.133 34.133s15.282 34.133 34.133 34.133h477.867c18.851 0 34.133-15.282 34.133-34.133s-15.282-34.133-34.133-34.133zM682.667 550.4h-341.333v-307.2h341.333v307.2zM409.6 686.933c0 18.851 15.282 34.133 34.133 34.133h136.533c18.851 0 34.133-15.282 34.133-34.133s-15.282-34.133-34.133-34.133h-136.533c-18.851 0-34.133 15.282-34.133 34.133zM443.733 516.267c18.851 0 34.133-15.282 34.133-34.133v-170.667c0-18.851-15.282-34.133-34.133-34.133s-34.133 15.282-34.133 34.133v170.667c0 18.851 15.282 34.133 34.133 34.133zM580.267 516.267c18.851 0 34.133-15.282 34.133-34.133v-170.667c0-18.851-15.282-34.133-34.133-34.133s-34.133 15.282-34.133 34.133v170.667c0 18.851 15.282 34.133 34.133 34.133z" />
<glyph unicode="&#xe905;" glyph-name="export" d="M477.867 570.395l-44.131-44.131c-13.33-13.33-34.942-13.33-48.272 0s-13.33 34.942 0 48.272l102.4 102.4c13.33 13.33 34.942 13.33 48.272 0l102.4-102.4c13.33-13.33 13.33-34.942 0-48.272s-34.942-13.33-48.272 0l-44.131 44.131v-190.662c0-18.851-15.282-34.133-34.133-34.133s-34.133 15.282-34.133 34.133v190.662zM716.8 277.333v170.667c0 18.851 15.282 34.133 34.133 34.133s34.133-15.282 34.133-34.133v-204.8c0-18.851-15.282-34.133-34.133-34.133h-477.867c-18.851 0-34.133 15.282-34.133 34.133v204.8c0 18.851 15.282 34.133 34.133 34.133s34.133-15.282 34.133-34.133v-170.667h409.6z" />
<glyph unicode="&#xe906;" glyph-name="logo001" d="M327.68 448h98.987l194.56-221.867h-197.973l-95.573 105.813-95.573-109.227h-197.973l194.56 225.28h98.987zM604.16 649.387h-197.973l-139.947-160.427h197.973l40.96 47.787 276.48-314.027h197.973z" />
<glyph unicode="&#xe907;" glyph-name="logo002" d="M85.333 451.358h27.307l58.027-64.853h-58.027l-27.307 30.72-27.307-30.72h-58.027l54.613 64.853h30.72zM273.067 386.505l-109.227 122.88h-54.613l-44.373-47.787h58.027l13.653 13.653 78.507-88.747zM354.106 393.387h-13.653c3.413 3.413 3.413 6.827 6.827 10.24 0 0 3.413-3.413 6.827-10.24v0zM340.452 413.867l-17.067-34.133h10.24l3.413 10.24h17.067l6.827-10.24h10.24l-20.48 34.133h-10.24zM436.026 403.627c0-3.413-6.827-3.413-6.827-3.413h-10.24v6.827h10.24c0 0 6.827 0 6.827-3.413zM429.199 413.867h-20.48v-34.133h10.24v13.653h10.24c10.24 0 17.067 3.413 17.067 10.24s-6.827 10.24-17.067 10.24zM509.118 384.951c-6.827 0-13.653 3.413-13.653 10.24s6.827 10.24 13.653 10.24c10.24 0 13.653-3.413 13.653-10.24 0-3.413-6.827-10.24-13.653-10.24zM509.118 415.671c-13.653 0-23.893-6.827-23.893-17.067s6.827-17.067 23.893-17.067c17.067 0 23.893 10.24 23.893 17.067 0 10.24-10.24 17.067-23.893 17.067zM582.799 413.867h-6.827v-30.72h30.72l3.413 6.827h-27.307zM657.892 413.867h-10.24v-30.72h34.133l3.413 6.827h-27.307zM743.226 407.040c10.24 0 13.653-3.413 13.653-10.24s-3.413-10.24-13.653-10.24c-6.827 0-13.653 3.413-13.653 10.24s3.413 10.24 13.653 10.24zM743.226 413.867c-13.653 0-23.893-6.827-23.893-17.067 0-6.827 6.827-17.067 23.893-17.067s23.893 10.24 23.893 17.067c0 10.24-10.24 17.067-23.893 17.067zM889.999 403.627c0-3.413-6.827-3.413-6.827-3.413h-10.24v6.827h10.24c0 0 6.827 0 6.827-3.413zM883.172 413.867h-20.48v-34.133h10.24v13.653h10.24c10.24 0 17.067 3.413 17.067 10.24s-6.827 10.24-17.067 10.24zM973.833 412.258l-10.24-13.653c0-3.413-3.413-6.827-3.413-6.827 0 3.413-3.413 6.827-3.413 10.24l-10.24 10.24h-10.24l20.48-30.72h6.827l20.48 30.72h-10.24zM395.066 461.653h-10.24v27.307h10.24v-27.307zM367.759 495.787v0-40.96h40.96v40.96h-40.96zM900.239 509.44h-17.067v-3.413l-17.067-23.893h10.24v-40.96h17.067v51.2h-3.413zM956.721 476.435h-17.067v3.413l3.413 3.413h40.96v10.24h-6.827l-6.827 17.067h-17.067v-3.413l6.827-13.653h-17.067v17.067h-17.067v-17.067h-27.307v-10.24h23.893l-30.72-40.96h20.48l23.893 30.72 3.413 3.413 6.827-13.653 17.067-20.48h20.48zM545.252 465.067l-13.653 6.827h-20.48v3.413h54.613v-3.413l-20.48-6.827zM511.119 448v20.48l20.48-10.24-20.48-10.24zM511.119 492.373v3.413h20.48v-13.653h-20.48v10.24zM555.492 458.24l23.893 13.653v13.653h-34.133v10.24h17.067v-6.827h17.067v17.067h-34.133v3.413h-17.067v-3.413h-34.133v-64.853h34.133l17.067 6.827 17.067-6.827h23.893l-30.72 17.067zM852.452 451.413h-34.133v23.893h37.547v10.24h-23.893l13.653 17.067v3.413h-17.067l-13.653-20.48h-13.653v23.893h-17.067v-23.893h-13.653l-13.653 20.48h-17.067v-3.413l3.413-3.413 10.24-13.653h-20.48v-10.24h30.72l-23.893-34.133h20.48l17.067 23.893 3.413 6.827 3.413 3.413h17.067v-34.133h54.613zM360.932 509.44l6.827-6.827h51.2v-61.44h17.067v61.44h6.827v6.827zM459.919 488.96l6.827-13.653h17.067l-6.827 17.067h6.827l-6.827 17.067h-17.067v-3.413l6.827-13.653h-6.827zM470.159 468.48l-20.48-27.307h17.067l20.48 27.307zM719.332 482.133v27.307h-119.467v-27.307h13.653l-13.653-20.48h20.48l3.413 6.827h68.267l-13.653-17.067h-17.067l-10.24 10.24h-17.067l10.24-10.24h-40.96l-3.413-10.24h92.16l17.067 20.48 6.827 6.827 3.413 6.827h-88.747l3.413 6.827h85.333zM685.199 502.613h17.067v-13.653h-17.067v13.653zM651.066 502.613h17.067v-13.653h-17.067v13.653zM633.999 488.96h-17.067v13.653h17.067v-13.653zM319.972 509.44v-6.827h23.893v-37.547l-6.827-3.413v34.133h-17.067v-54.613h17.067v13.653l23.893 3.413v51.2z" />
<glyph unicode="&#xe908;" glyph-name="login_code" d="M783.154 624.36c-0.602 18.814-16.192 36.588-34.64 39.8 0 0-71.522 11.294-111.653 25.555-50.107 17.807-99.691 56.944-99.691 56.944-15.467 11.029-39.187 10.347-53.531-1.575 0 0-35.102-35.369-100.598-56.018-60.508-24.283-108.869-26.771-108.869-26.771-18.251-2.374-33.961-19.199-34.316-38.010 0 0-2.458-96.699 0.644-181.566 1.171-151.827 181.151-301.92 272.101-301.92 89.525 0 244.234 104.571 268.572 299.712 6.013 115.856 1.981 183.848 1.981 183.848zM643.509 491.168l-154.745-156.415c-6.592-6.664-17.779-7.431-25.359-1.413l-80.81 64.128c-14.842 11.779-16.39 32.285-3.255 46.006 13.044 13.627 35.447 15.43 50.592 3.592l37.512-29.319 128.917 121.29c13.428 12.633 34.777 12.276 47.883-0.218-0.186 0.198-0.238 0.464-0.433 0.656l1.093-1.095c-0.192 0.195-0.462 0.254-0.66 0.442 12.608-13.231 12.432-34.341-0.735-47.653z" />
<glyph unicode="&#xe909;" glyph-name="navigation_001" d="M648.533 686.933v17.067c0 9.426 7.641 17.067 17.067 17.067h102.4c9.426 0 17.067-7.641 17.067-17.067v-102.4c0-9.426-7.641-17.067-17.067-17.067h-102.4c-9.426 0-17.067 7.641-17.067 17.067v17.067h-68.494v-136.533h68.494v17.067c0 9.426 7.641 17.067 17.067 17.067h102.4c9.426 0 17.067-7.641 17.067-17.067v-102.4c0-9.426-7.641-17.067-17.067-17.067h-102.4c-9.426 0-17.067 7.641-17.067 17.067v17.067h-68.494v-136.533h68.494v17.067c0 9.426 7.641 17.067 17.067 17.067h102.4c9.426 0 17.067-7.641 17.067-17.067v-102.4c0-9.426-7.641-17.067-17.067-17.067h-102.4c-9.426 0-17.067 7.641-17.067 17.067v17.067h-102.514c-18.788 0-34.019 15.282-34.019 34.133v170.667h-68.267v-102.4c0-18.851-15.282-34.133-34.133-34.133h-136.533c-18.851 0-34.133 15.282-34.133 34.133v273.067c0 18.851 15.282 34.133 34.133 34.133h136.533c18.851 0 34.133-15.282 34.133-34.133v-102.4h68.267v170.667c0 18.851 15.231 34.133 34.019 34.133h102.514zM307.2 550.4v-204.8h68.267v204.8h-68.267z" />
<glyph unicode="&#xe90a;" glyph-name="navigation_002" d="M309.265 418.803l53.077 15.907c12.027 3.604 25.061 0.315 33.938-8.564l66.405-66.422 61.857-20.41c13.366-4.41 22.654-16.572 23.391-30.628l3.236-61.744c94.371 18.277 165.631 101.346 165.631 201.058 0 14.091-1.423 27.849-4.133 41.139l-36.994-13.29-28.892-86.675c-5.953-17.859-25.241-27.527-43.112-21.609l-103.075 34.133c-5.106 1.691-9.741 4.565-13.525 8.387l-67.592 68.267c-10.293 10.396-12.817 26.195-6.274 39.281l28.671 57.341-13.641 59.966c-71.344-32.018-121.033-103.677-121.033-186.941 0-9.913 0.704-19.661 2.065-29.197zM330.111 353.784c29.843-57.497 86.15-99.052 152.786-108.532l-1.915 36.548-47.394 15.638c-5.067 1.672-9.671 4.508-13.444 8.282l-57.73 57.745-32.303-9.681zM494.352 652.050l16.798-73.844c1.752-7.701 0.779-15.772-2.753-22.836l-23.189-46.377 44.616-45.061 62.967-20.852 23.361 70.082c3.31 9.929 10.992 17.791 20.842 21.33l50.992 18.318c-35.741 59.883-101.179 99.99-175.985 99.99-5.945 0-11.831-0.253-17.648-0.75zM512 174.933c-150.811 0-273.067 122.256-273.067 273.067s122.256 273.067 273.067 273.067c150.811 0 273.067-122.256 273.067-273.067s-122.256-273.067-273.067-273.067z" />
<glyph unicode="&#xe90b;" glyph-name="navigation_003" d="M273.067 584.533v17.067c0 9.426 7.641 17.067 17.067 17.067h443.733c9.426 0 17.067-7.641 17.067-17.067v-197.042c0-127.182-107.32-229.624-238.933-229.624s-238.933 102.442-238.933 229.624v179.976zM341.333 516.267v-111.709c0-88.751 76.064-161.358 170.667-161.358s170.667 72.607 170.667 161.358v111.709h-341.333zM273.067 669.867v34.133c0 9.426 7.641 17.067 17.067 17.067h443.733c9.426 0 17.067-7.641 17.067-17.067v-34.133c0-9.426-7.641-17.067-17.067-17.067h-443.733c-9.426 0-17.067 7.641-17.067 17.067zM512 311.467c-37.703 0-68.267 30.564-68.267 68.267s30.564 68.267 68.267 68.267c37.703 0 68.267-30.564 68.267-68.267s-30.564-68.267-68.267-68.267zM597.333 448c-9.426 0-17.067 7.641-17.067 17.067s7.641 17.067 17.067 17.067c9.426 0 17.067-7.641 17.067-17.067s-7.641-17.067-17.067-17.067z" />
<glyph unicode="&#xe90c;" glyph-name="navigation_004" d="M307.2 243.2v173.253c0 111.797 91.808 202.214 204.8 202.214s204.8-90.417 204.8-202.214v-173.253h34.133c18.851 0 34.133-15.282 34.133-34.133s-15.282-34.133-34.133-34.133h-477.867c-18.851 0-34.133 15.282-34.133 34.133s15.282 34.133 34.133 34.133h34.133zM648.533 416.453c0 73.86-61.012 133.947-136.533 133.947s-136.533-60.088-136.533-133.947v-173.253h273.067v173.253zM580.267 379.733c0-18.851-15.282-34.133-34.133-34.133s-34.133 15.282-34.133 34.133c0 18.851-15.282 34.133-34.133 34.133s-34.133 15.282-34.133 34.133c0 18.851 15.282 34.133 34.133 34.133 56.554 0 102.4-45.846 102.4-102.4zM477.867 721.067c0 18.851 15.282 34.133 34.133 34.133s34.133-15.282 34.133-34.133v-34.133c0-18.851-15.282-34.133-34.133-34.133s-34.133 15.282-34.133 34.133v34.133zM748.647 639.694c16.326 9.426 37.201 3.832 46.627-12.494s3.832-37.201-12.494-46.627l-29.56-17.067c-16.326-9.426-37.201-3.832-46.627 12.494s-3.832 37.201 12.494 46.627l29.56 17.067zM241.22 580.573c-16.326 9.426-21.919 30.301-12.494 46.627s30.301 21.919 46.627 12.494l29.56-17.067c16.326-9.426 21.919-30.301 12.494-46.627s-30.301-21.919-46.627-12.494l-29.56 17.067z" />
<glyph unicode="&#xe90d;" glyph-name="navigation_005" d="M682.667 363.868v288.932h-341.333v-288.932l170.667-113.778 170.667 113.778zM493.066 180.666l-204.8 136.533c-9.496 6.331-15.2 16.988-15.2 28.401v341.333c0 18.851 15.282 34.133 34.133 34.133h409.6c18.851 0 34.133-15.282 34.133-34.133v-341.333c0-11.413-5.704-22.070-15.2-28.401l-204.8-136.533c-11.465-7.644-26.402-7.644-37.868 0zM587.746 571.723l-112.71-140.887-41.3 41.3c-13.33 13.33-34.942 13.33-48.272 0s-13.33-34.942 0-48.272l68.267-68.267c14.385-14.385 38.081-13.073 50.79 2.813l136.533 170.667c11.776 14.72 9.39 36.2-5.331 47.977s-36.2 9.39-47.977-5.331z" />
<glyph unicode="&#xe90e;" glyph-name="navigation_006" d="M750.933 548.49v-271.157c0-56.554-45.846-102.4-102.4-102.4h-273.067c-56.554 0-102.4 45.846-102.4 102.4v341.333c0 56.554 45.846 102.4 102.4 102.4h202.89c9.062 0.575 18.495-2.447 26.046-9.997l136.533-136.533c7.551-7.551 10.572-16.984 9.997-26.046zM682.667 516.267h-102.4c-18.851 0-34.133 15.282-34.133 34.133v102.4h-170.667c-18.851 0-34.133-15.282-34.133-34.133v-341.333c0-18.851 15.282-34.133 34.133-34.133h273.067c18.851 0 34.133 15.282 34.133 34.133v238.933zM409.6 550.4h68.267c18.851 0 34.133-15.282 34.133-34.133s-15.282-34.133-34.133-34.133h-68.267c-18.851 0-34.133 15.282-34.133 34.133s15.282 34.133 34.133 34.133zM409.6 413.867h204.8c18.851 0 34.133-15.282 34.133-34.133s-15.282-34.133-34.133-34.133h-204.8c-18.851 0-34.133 15.282-34.133 34.133s15.282 34.133 34.133 34.133z" />
<glyph unicode="&#xe90f;" glyph-name="navigation_007" d="M614.4 243.2h51.2c28.277 0 51.2 22.923 51.2 51.2s-22.923 51.2-51.2 51.2h-51.2v-102.4zM580.267 174.933c-18.851 0-34.133 15.282-34.133 34.133v166.75c-0.147 1.285-0.222 2.592-0.222 3.917v136.533c0 18.851 15.282 34.133 34.133 34.133h68.489c56.554 0 102.4-45.846 102.4-102.4 0-20.62-6.095-39.817-16.581-55.887 30.676-21.624 50.715-57.328 50.715-97.713 0-65.98-53.487-119.467-119.467-119.467h-85.333zM648.533 413.867c18.851 0 34.133 15.282 34.133 34.133s-15.282 34.133-34.133 34.133h-34.356v-68.267h34.356zM343.118 311.467h65.287l-32.386 98.547-32.901-98.547zM320.326 243.2l-14.883-44.579c-5.97-17.881-25.305-27.537-43.186-21.567s-27.537 25.305-21.567 43.186l103.207 309.134c10.408 31.176 54.542 31.072 64.804-0.153l101.593-309.134c5.886-17.909-3.861-37.198-21.77-43.084s-37.198 3.861-43.084 21.77l-14.6 44.426h-110.513zM648.894 686.933c0 18.851 15.282 34.133 34.133 34.133s34.133-15.282 34.133-34.133v-72.084c0-30.612-37.186-45.748-58.564-23.838-38.321 39.274-90.627 61.788-146.597 61.788-54.929 0-106.342-21.678-144.497-59.667-21.524-21.43-58.217-6.185-58.217 24.189v69.611c0 18.851 15.282 34.133 34.133 34.133s34.133-15.282 34.133-34.133v-1.199c40.365 22.867 86.438 35.332 134.447 35.332 48.996 0 95.963-12.986 136.894-36.735v2.602z" />
<glyph unicode="&#xe910;" glyph-name="navigation_008" d="M614.444 439.276c-24.404-8.617-45.98-23.226-62.959-42.060-22.289 10.673-47.256 16.651-73.618 16.651-94.257 0-170.667-76.41-170.667-170.667h213.54c9.553-27.028 26.456-50.584 48.308-68.267h-295.981c-18.851 0-34.133 15.282-34.133 34.133v34.133c0 105.873 68.861 195.663 164.238 227.026-37.239 24.383-61.838 66.473-61.838 114.308 0 75.405 61.128 136.533 136.533 136.533s136.533-61.128 136.533-136.533c0-47.835-24.599-89.924-61.838-114.308 22.25-7.316 43.056-17.812 61.883-30.95zM477.867 516.267c37.703 0 68.267 30.564 68.267 68.267s-30.564 68.267-68.267 68.267c-37.703 0-68.267-30.564-68.267-68.267s30.564-68.267 68.267-68.267zM638.397 410.565c18.302 4.284 37.634 4.281 56.37-0.445-1.179-13.988 5.606-28.060 18.568-35.543 12.756-7.365 28.048-6.358 39.514 1.316 13.153-14.043 22.513-30.892 27.649-48.93-12.126-6.181-20.431-18.785-20.431-33.329 0-14.432 8.177-26.954 20.151-33.185-2.623-8.872-6.327-17.579-11.156-25.945-4.838-8.379-10.537-15.95-16.921-22.667-11.382 7.249-26.311 8.067-38.806 0.853-12.585-7.266-19.348-20.745-18.65-34.326-18.189-4.567-37.459-4.881-56.195-0.51 0.896 13.753-5.878 27.479-18.621 34.836-12.948 7.476-28.51 6.326-40.030-1.667-13.462 13.86-23.132 30.596-28.576 48.585 12.905 5.893 21.874 18.912 21.874 34.026 0 15.247-9.127 28.362-22.216 34.18 2.627 8.946 6.351 17.724 11.219 26.156 4.861 8.419 10.591 16.022 17.013 22.762 11.583-8.432 27.51-9.781 40.717-2.155 13.099 7.563 19.89 21.855 18.527 35.988zM648.535 264.676c16.326-9.426 37.201-3.832 46.627 12.494s3.832 37.201-12.494 46.627c-16.326 9.426-37.201 3.832-46.627-12.494s-3.832-37.201 12.494-46.627z" />
<glyph unicode="&#xe911;" glyph-name="navigation_009" d="M614.4 564.538l54.128 54.128-44.131 44.131c-13.33 13.33-13.33 34.942 0 48.272s34.942 13.33 48.272 0l68.267-68.267c13.33-13.33 13.33-34.942 0-48.272l-184.223-184.223c14.921-23.679 23.554-51.719 23.554-81.775 0-84.831-68.769-153.6-153.6-153.6s-153.6 68.769-153.6 153.6c0 84.831 68.769 153.6 153.6 153.6 30.056 0 58.095-8.633 81.775-23.554l57.687 57.687-78.264 78.264c-13.33 13.33-13.33 34.942 0 48.272s34.942 13.33 48.272 0l78.264-78.264zM426.667 413.867c-47.128 0-85.333-38.205-85.333-85.333s38.205-85.333 85.333-85.333c47.128 0 85.333 38.205 85.333 85.333s-38.205 85.333-85.333 85.333z" />
<glyph unicode="&#xe912;" glyph-name="navigation_recovery" d="M307.2 652.8c-18.851 0-34.133 15.282-34.133 34.133s15.282 34.133 34.133 34.133h409.6c18.851 0 34.133-15.282 34.133-34.133s-15.282-34.133-34.133-34.133h-409.6zM307.2 516.267c-18.851 0-34.133 15.282-34.133 34.133s15.282 34.133 34.133 34.133h170.667c18.851 0 34.133-15.282 34.133-34.133s-15.282-34.133-34.133-34.133h-170.667zM307.2 379.733c-18.851 0-34.133 15.282-34.133 34.133s15.282 34.133 34.133 34.133h170.667c18.851 0 34.133-15.282 34.133-34.133s-15.282-34.133-34.133-34.133h-170.667zM307.2 243.2c-18.851 0-34.133 15.282-34.133 34.133s15.282 34.133 34.133 34.133h409.6c18.851 0 34.133-15.282 34.133-34.133s-15.282-34.133-34.133-34.133h-409.6zM706.803 403.869c13.33-13.33 13.33-34.942 0-48.272s-34.942-13.33-48.272 0l-102.4 102.4c-13.33 13.33-13.33 34.942 0 48.272l102.4 102.4c13.33 13.33 34.942 13.33 48.272 0s13.33-34.942 0-48.272l-78.264-78.264 78.264-78.264z" />
<glyph unicode="&#xe913;" glyph-name="navigation_spread" d="M307.2 652.8c-18.851 0-34.133 15.282-34.133 34.133s15.282 34.133 34.133 34.133h409.6c18.851 0 34.133-15.282 34.133-34.133s-15.282-34.133-34.133-34.133h-409.6zM307.2 516.267c-18.851 0-34.133 15.282-34.133 34.133s15.282 34.133 34.133 34.133h170.667c18.851 0 34.133-15.282 34.133-34.133s-15.282-34.133-34.133-34.133h-170.667zM307.2 379.733c-18.851 0-34.133 15.282-34.133 34.133s15.282 34.133 34.133 34.133h170.667c18.851 0 34.133-15.282 34.133-34.133s-15.282-34.133-34.133-34.133h-170.667zM307.2 243.2c-18.851 0-34.133 15.282-34.133 34.133s15.282 34.133 34.133 34.133h409.6c18.851 0 34.133-15.282 34.133-34.133s-15.282-34.133-34.133-34.133h-409.6zM556.131 403.869l78.264 78.264-78.264 78.264c-13.33 13.33-13.33 34.942 0 48.272s34.942 13.33 48.272 0l102.4-102.4c13.33-13.33 13.33-34.942 0-48.272l-102.4-102.4c-13.33-13.33-34.942-13.33-48.272 0s-13.33 34.942 0 48.272z" />
<glyph unicode="&#xe914;" glyph-name="login_password" d="M654.709 561.778v56.889c0 78.507-63.794 142.222-142.397 142.222s-142.397-63.716-142.397-142.222v-56.889h-55.346c-31.327 0-56.959-25.6-56.959-56.889v-284.444c0-31.289 25.631-56.889 56.959-56.889h398.083c31.327 0 56.959 25.6 56.959 56.889v284.444c0 31.289-25.631 56.889-56.959 56.889h-57.944zM455.353 362.667c0 31.289 25.631 56.889 56.959 56.889s56.959-25.6 56.959-56.889c0-31.289-25.631-56.889-56.959-56.889s-56.959 25.6-56.959 56.889zM424.026 561.778v56.889c0 48.64 39.586 88.178 88.286 88.178s88.286-39.538 88.286-88.178v-56.889h-176.572z" />
<glyph unicode="&#xe915;" glyph-name="login_user" d="M512 448c-78.547 0-142.222 63.675-142.222 142.222s63.675 142.222 142.222 142.222c78.547 0 142.222-63.675 142.222-142.222s-63.675-142.222-142.222-142.222zM512 376.889c94.933 0 284.444-47.644 284.444-142.222v-71.111h-568.889v71.111c0 94.578 189.511 142.222 284.444 142.222z" />
<glyph unicode="&#xe916;" d="M819.2 448c0-169.662-137.538-307.2-307.2-307.2s-307.2 137.538-307.2 307.2c0 169.662 137.538 307.2 307.2 307.2s307.2-137.538 307.2-307.2z" />
<glyph unicode="&#xe917;" d="M512 106.667c-187.733 0-341.333 153.6-341.333 341.333s153.6 341.333 341.333 341.333c187.733 0 341.333-153.6 341.333-341.333s-153.6-341.333-341.333-341.333zM512 755.2c-170.667 0-307.2-136.533-307.2-307.2s136.533-307.2 307.2-307.2c170.667 0 307.2 136.533 307.2 307.2s-136.533 307.2-307.2 307.2z" />
<glyph unicode="&#xe918;" d="M457.387 270.507l-174.080 180.907 47.787 47.787 126.293-129.707 235.52 238.933 47.787-47.787z" />
</font>
</defs>
</svg>
