<!-- Generated by IcoMoon.io -->
<svg version="1.1" xmlns="http://www.w3.org/2000/svg" xmlns:xlink="http://www.w3.org/1999/xlink"  width="32" height="32" viewBox="0 0 32 32">
<title>login_password</title>
<path d="M20.46 12.444v-1.778c0-2.453-1.994-4.444-4.45-4.444s-4.45 1.991-4.45 4.444v1.778h-1.73c-0.979 0-1.78 0.8-1.78 1.778v8.889c0 0.978 0.801 1.778 1.78 1.778h12.44c0.979 0 1.78-0.8 1.78-1.778v-8.889c0-0.978-0.801-1.778-1.78-1.778h-1.811zM14.23 18.667c0-0.978 0.801-1.778 1.78-1.778s1.78 0.8 1.78 1.778c0 0.978-0.801 1.778-1.78 1.778s-1.78-0.8-1.78-1.778zM13.251 12.444v-1.778c0-1.52 1.237-2.756 2.759-2.756s2.759 1.236 2.759 2.756v1.778h-5.518z"></path>
</svg>
