<!-- Generated by IcoMoon.io -->
<svg version="1.1" xmlns="http://www.w3.org/2000/svg" width="32" height="32" viewBox="0 0 32 32">
<title>organization</title>
<path d="M18.37 11.852h-1.78c-0.326 0-0.591 0.265-0.591 0.593v2.963h-1.185v-1.778c0-0.327-0.265-0.593-0.593-0.593h-2.37c-0.327 0-0.593 0.265-0.593 0.593v4.741c0 0.327 0.265 0.593 0.593 0.593h2.37c0.327 0 0.593-0.265 0.593-0.593v-1.778h1.185v2.963c0 0.327 0.264 0.593 0.591 0.593h1.78v0.059c0 0.295 0.239 0.533 0.533 0.533h1.304c0.295 0 0.533-0.239 0.533-0.533v-1.304c0-0.295-0.239-0.533-0.533-0.533h-1.304c-0.295 0-0.533 0.239-0.533 0.533v0.059h-1.189v-2.37h1.189v0.059c0 0.295 0.239 0.533 0.533 0.533h1.304c0.295 0 0.533-0.239 0.533-0.533v-1.304c0-0.295-0.239-0.533-0.533-0.533h-1.304c-0.295 0-0.533 0.239-0.533 0.533v0.059h-1.189v-2.37h1.189v0.059c0 0.295 0.239 0.533 0.533 0.533h1.304c0.295 0 0.533-0.239 0.533-0.533v-1.304c0-0.295-0.239-0.533-0.533-0.533h-1.304c-0.295 0-0.533 0.239-0.533 0.533v0.059zM16 24.533c-4.713 0-8.533-3.82-8.533-8.533s3.82-8.533 8.533-8.533c4.713 0 8.533 3.82 8.533 8.533s-3.82 8.533-8.533 8.533zM12.444 14.222v3.556h1.185v-3.556h-1.185z"></path>
</svg>
