<!-- Generated by IcoMoon.io -->
<svg version="1.1" xmlns="http://www.w3.org/2000/svg" width="32" height="32" viewBox="0 0 32 32">
<title>customer_manager</title>
<path d="M19.733 15.573c1.387-1.173 2.24-2.88 2.24-4.693 0-3.307-2.667-5.973-6.080-5.973s-6.080 2.667-6.080 5.973c0 1.813 0.853 3.52 2.24 4.693-3.84 1.493-6.507 5.227-6.507 9.387v2.347c0 0.427 0.32 0.853 0.853 0.853h18.88c0.427 0 0.853-0.32 0.853-0.853v-2.347c0.107-4.16-2.453-7.893-6.4-9.387zM16 17.813c4.053 0 7.253 3.2 7.253 7.147v0.213h-14.507v-0.213c0-3.947 3.2-7.147 7.253-7.147zM12.907 10.88c0-1.6 1.387-2.987 3.093-2.987s3.093 1.387 3.093 2.987c0 1.6-1.387 2.987-3.093 2.987s-3.093-1.387-3.093-2.987z"></path>
<path d="M6.080 18.24c0.107 0 0.32-0.107 0.64-0.32 0.427-0.32 1.067-0.64 1.28-0.747 0.64-0.32 0.853-1.067 0.747-1.813-0.213-0.427-0.533-0.853-1.067-1.28-0.747-0.64-1.173-1.28-1.173-2.027 0-0.96 0.64-1.813 1.6-2.133l0.213-0.107 1.067-2.56h-0.64c-2.667 0-4.8 2.133-4.8 4.8 0 1.387 0.64 2.667 1.707 3.627-2.987 1.28-5.013 4.16-5.013 7.467v1.92c0 0.427 0.32 0.747 0.747 0.747h2.453l0.107-1.6 0.213-0.96h-0.96v-0.107c0-2.027 1.067-3.84 2.88-4.907z"></path>
<path d="M26.347 15.68c1.067-0.853 1.707-2.24 1.707-3.627 0-2.56-2.133-4.693-4.8-4.8h-0.64l1.067 2.56 0.213 0.107c0.96 0.32 1.6 1.173 1.6 2.133 0 0.747-0.427 1.387-1.173 2.027-0.533 0.427-0.853 0.853-0.96 1.28-0.213 0.747 0.107 1.493 0.747 1.813 0.213 0.107 0.853 0.533 1.28 0.747 0.32 0.213 0.533 0.32 0.64 0.427 1.813 0.96 2.88 2.88 2.88 4.8v0.107h-1.067l0.107 0.533 0.213 2.027h2.453c0.427 0 0.747-0.32 0.747-0.747v-1.92c0-3.2-2.027-6.187-5.013-7.467z"></path>
</svg>
