<!-- Generated by IcoMoon.io -->
<svg version="1.1" xmlns="http://www.w3.org/2000/svg" width="32" height="32" viewBox="0 0 32 32">
<title>navigation_009</title>
<path d="M19.2 12.358l1.692-1.691-1.379-1.379c-0.417-0.417-0.417-1.092 0-1.508s1.092-0.417 1.509 0l2.133 2.133c0.417 0.417 0.417 1.092 0 1.508l-5.757 5.757c0.466 0.74 0.736 1.616 0.736 2.555 0 2.651-2.149 4.8-4.8 4.8s-4.8-2.149-4.8-4.8c0-2.651 2.149-4.8 4.8-4.8 0.939 0 1.815 0.27 2.555 0.736l1.803-1.803-2.446-2.446c-0.417-0.417-0.417-1.092 0-1.508s1.092-0.417 1.509 0l2.446 2.446zM13.333 17.067c-1.473 0-2.667 1.194-2.667 2.667s1.194 2.667 2.667 2.667c1.473 0 2.667-1.194 2.667-2.667s-1.194-2.667-2.667-2.667z"></path>
</svg>
