<!-- Generated by IcoMoon.io -->
<svg version="1.1" xmlns="http://www.w3.org/2000/svg" width="32" height="32" viewBox="0 0 32 32">
<title>navigation_008</title>
<path d="M19.201 16.273c-0.763 0.269-1.437 0.726-1.967 1.314-0.697-0.334-1.477-0.52-2.301-0.52-2.946 0-5.333 2.388-5.333 5.333h6.673c0.299 0.845 0.827 1.581 1.51 2.133h-9.249c-0.589 0-1.067-0.478-1.067-1.067v-1.067c0-3.309 2.152-6.114 5.132-7.095-1.164-0.762-1.932-2.077-1.932-3.572 0-2.356 1.91-4.267 4.267-4.267s4.267 1.91 4.267 4.267c0 1.495-0.769 2.81-1.932 3.572 0.695 0.229 1.346 0.557 1.934 0.967zM14.933 13.867c1.178 0 2.133-0.955 2.133-2.133s-0.955-2.133-2.133-2.133c-1.178 0-2.133 0.955-2.133 2.133s0.955 2.133 2.133 2.133z"></path>
<path d="M19.95 17.17c0.572-0.134 1.176-0.134 1.762 0.014-0.037 0.437 0.175 0.877 0.58 1.111 0.399 0.23 0.877 0.199 1.235-0.041 0.411 0.439 0.704 0.965 0.864 1.529-0.379 0.193-0.638 0.587-0.638 1.042 0 0.451 0.256 0.842 0.63 1.037-0.082 0.277-0.198 0.549-0.349 0.811s-0.329 0.498-0.529 0.708c-0.356-0.227-0.822-0.252-1.213-0.027-0.393 0.227-0.605 0.648-0.583 1.073-0.568 0.143-1.171 0.153-1.756 0.016 0.028-0.43-0.184-0.859-0.582-1.089-0.405-0.234-0.891-0.198-1.251 0.052-0.421-0.433-0.723-0.956-0.893-1.518 0.403-0.184 0.684-0.591 0.684-1.063 0-0.476-0.285-0.886-0.694-1.068 0.082-0.28 0.198-0.554 0.351-0.817s0.331-0.501 0.532-0.711c0.362 0.264 0.86 0.306 1.272 0.067 0.409-0.236 0.622-0.683 0.579-1.125zM20.267 21.729c0.51 0.295 1.163 0.12 1.457-0.39s0.12-1.163-0.39-1.457c-0.51-0.295-1.163-0.12-1.457 0.39s-0.12 1.163 0.39 1.457z"></path>
</svg>
