<!-- Generated by IcoMoon.io -->
<svg version="1.1" xmlns="http://www.w3.org/2000/svg" width="32" height="32" viewBox="0 0 32 32">
<title>role_manager</title>
<path d="M16 16.188c-3.645 0-6.6-2.908-6.6-6.494s2.955-6.494 6.6-6.494c3.645 0 6.6 2.908 6.6 6.494s-2.955 6.494-6.6 6.494zM16 13.302c2.025 0 3.667-1.615 3.667-3.608s-1.642-3.608-3.667-3.608c-2.025 0-3.667 1.615-3.667 3.608s1.642 3.608 3.667 3.608zM26.554 19.103c0.686 0.135 1.179 0.727 1.179 1.415v5.773c0 0.797-0.657 1.443-1.467 1.443h-20.533c-0.81 0-1.467-0.646-1.467-1.443v-5.773c0-0.688 0.493-1.28 1.179-1.415l7.333-1.443 0.288-0.028h5.867l0.288 0.028 7.333 1.443zM18.788 20.518h-5.576l-6.012 1.183v3.146h17.6v-3.146l-6.012-1.183z"></path>
</svg>
