<!-- Generated by IcoMoon.io -->
<svg version="1.1" xmlns="http://www.w3.org/2000/svg" width="32" height="32" viewBox="0 0 32 32">
<title>attachment</title>
<path d="M15.068 19.557c-0.572 0.794-1.69 0.993-2.497 0.444s-0.998-1.637-0.426-2.43c0.037-0.050 0.056-0.077 0.087-0.12l4.832-6.704c0.030-0.043 0.070-0.074 0.11-0.103 0.995-1.124 2.703-1.373 3.965-0.516 1.262 0.859 1.604 2.502 0.859 3.795-0.013 0.047-0.031 0.094-0.061 0.137l-4.659 6.463c-0.031 0.043-0.070 0.096-0.087 0.12-1.333 1.851-3.942 2.315-5.826 1.034-1.883-1.281-2.328-3.819-0.994-5.67 0.039-0.057 0.056-0.077 0.086-0.12l3.97-5.507c0.143-0.198 0.422-0.248 0.625-0.111 0.201 0.137 0.25 0.409 0.107 0.608l-3.971 5.508c-0.030 0.043-0.066 0.091-0.086 0.12-1.048 1.455-0.699 3.45 0.78 4.455 1.48 1.005 3.53 0.642 4.578-0.813 0.034-0.046 0.056-0.077 0.087-0.12l4.572-6.345c0.667-0.926 0.445-2.195-0.496-2.835s-2.245-0.409-2.912 0.518l-4.748 6.583c-0.030 0.043-0.068 0.093-0.086 0.12-0.287 0.397-0.191 0.941 0.213 1.215s0.963 0.175 1.248-0.221l0.732 0.496zM14.338 19.060l3.496-4.85c0.143-0.198 0.422-0.248 0.625-0.111 0.201 0.137 0.25 0.409 0.107 0.608l-3.497 4.85-0.73-0.496z"></path>
</svg>
