<!-- Generated by IcoMoon.io -->
<svg version="1.1" xmlns="http://www.w3.org/2000/svg" width="32" height="32" viewBox="0 0 32 32">
<title>setting</title>
<path  stroke-width="0.4267" stroke-miterlimit="4" stroke-linecap="butt" stroke-linejoin="miter" d="M7.924 18.233c-0.412 0.331-0.518 0.898-0.252 1.345l1.715 2.916c0.193 0.327 0.554 0.529 0.943 0.529 0.136 0 0.27-0.025 0.399-0.075l1.794-0.709c0.303 0.205 0.619 0.386 0.941 0.537l0.272 1.889 0.001 0.003c0.084 0.518 0.534 0.894 1.071 0.894h3.428c0.529 0 0.991-0.388 1.074-0.901l0.272-1.884c0.326-0.154 0.642-0.335 0.941-0.538l1.801 0.713c0.125 0.047 0.258 0.072 0.394 0.072 0.386 0 0.747-0.204 0.942-0.532l1.711-2.911c0.268-0.45 0.159-1.020-0.259-1.357l-1.528-1.172c0.017-0.191 0.025-0.368 0.025-0.539s-0.008-0.348-0.025-0.539l1.535-1.179c0.415-0.33 0.523-0.897 0.256-1.347l-1.714-2.914c-0.192-0.328-0.552-0.531-0.94-0.531-0.136 0-0.27 0.025-0.4 0.073l-1.797 0.71c-0.302-0.205-0.618-0.385-0.941-0.538l-0.273-1.888c-0.080-0.511-0.541-0.896-1.072-0.896h-3.429c-0.538 0-0.989 0.379-1.073 0.902l-0.272 1.883c-0.323 0.153-0.639 0.333-0.942 0.538l-1.802-0.712c-0.12-0.045-0.247-0.068-0.378-0.068-0.391 0-0.766 0.207-0.955 0.528l-1.714 2.913c-0.267 0.454-0.157 1.023 0.262 1.353l1.528 1.174c-0.017 0.19-0.025 0.367-0.025 0.539s0.008 0.349 0.025 0.539l-1.537 1.179zM22.484 15.194c-0.18 0.138-0.274 0.361-0.245 0.582 0.038 0.289 0.055 0.524 0.055 0.74 0 0.224-0.018 0.459-0.055 0.74-0.029 0.221 0.065 0.444 0.245 0.582l1.673 1.24-1.491 2.632-1.988-0.786c-0.080-0.032-0.163-0.048-0.249-0.048-0.145 0-0.288 0.048-0.402 0.135-0.41 0.309-0.847 0.558-1.299 0.741-0.213 0.086-0.365 0.278-0.398 0.501l-0.293 2.037-3.023 0.043-0.3-2.080c-0.031-0.221-0.184-0.414-0.398-0.502-0.448-0.18-0.885-0.43-1.299-0.741-0.115-0.085-0.257-0.132-0.401-0.132-0.086 0-0.169 0.016-0.248 0.047l-1.919 0.804-1.575-2.595 1.69-1.296c0.18-0.138 0.273-0.361 0.244-0.584-0.037-0.269-0.055-0.51-0.055-0.739 0-0.227 0.018-0.468 0.054-0.738 0.030-0.222-0.064-0.446-0.247-0.585l-1.671-1.24 1.491-2.633 1.987 0.785c0.080 0.032 0.164 0.048 0.249 0.048 0.144 0 0.287-0.047 0.402-0.133 0.41-0.308 0.848-0.559 1.302-0.744 0.212-0.086 0.364-0.277 0.397-0.5l0.25-2.035 3.067-0.043 0.3 2.079c0.031 0.222 0.184 0.414 0.398 0.501 0.452 0.183 0.89 0.433 1.3 0.742 0.115 0.086 0.258 0.133 0.403 0.133 0.085 0 0.168-0.016 0.247-0.047l1.92-0.803 1.576 2.594-1.69 1.298z"></path>
<path  stroke-width="0.4267" stroke-miterlimit="4" stroke-linecap="butt" stroke-linejoin="miter" d="M17.831 18.6c-0.374 0.228-0.815 0.36-1.286 0.36-1.352 0-2.452-1.082-2.452-2.412s1.1-2.412 2.452-2.412c1.352 0 2.451 1.082 2.451 2.412 0 0.324-0.065 0.633-0.184 0.916l1.239 0.419c0.165-0.414 0.255-0.864 0.255-1.335 0-2.032-1.688-3.685-3.762-3.685s-3.763 1.653-3.763 3.685 1.688 3.685 3.763 3.685c0.744 0 1.438-0.212 2.022-0.579l-0.736-1.055z"></path>
<path  stroke-width="0.4267" stroke-miterlimit="4" stroke-linecap="butt" stroke-linejoin="miter" d="M15.257 18.6c0.374 0.228 0.815 0.36 1.286 0.36 1.352 0 2.452-1.082 2.452-2.412s-1.1-2.412-2.452-2.412c-1.352 0-2.451 1.082-2.451 2.412 0 0.324 0.065 0.633 0.184 0.916l-1.239 0.419c-0.165-0.414-0.255-0.864-0.255-1.335 0-2.032 1.688-3.685 3.762-3.685s3.763 1.653 3.763 3.685-1.688 3.685-3.763 3.685c-0.744 0-1.438-0.212-2.022-0.579l0.736-1.055z"></path>
</svg>
