<!-- Generated by IcoMoon.io -->
<svg version="1.1" xmlns="http://www.w3.org/2000/svg" width="32" height="32" viewBox="0 0 32 32">
<title>navigation_004</title>
<path d="M9.6 22.4v-5.414c0-3.494 2.869-6.319 6.4-6.319s6.4 2.826 6.4 6.319v5.414h1.067c0.589 0 1.067 0.478 1.067 1.067s-0.478 1.067-1.067 1.067h-14.933c-0.589 0-1.067-0.478-1.067-1.067s0.478-1.067 1.067-1.067h1.067zM20.267 16.986c0-2.308-1.907-4.186-4.267-4.186s-4.267 1.878-4.267 4.186v5.414h8.533v-5.414zM18.133 18.133c0 0.589-0.478 1.067-1.067 1.067s-1.067-0.478-1.067-1.067c0-0.589-0.478-1.067-1.067-1.067s-1.067-0.478-1.067-1.067c0-0.589 0.478-1.067 1.067-1.067 1.767 0 3.2 1.433 3.2 3.2zM14.933 7.467c0-0.589 0.478-1.067 1.067-1.067s1.067 0.478 1.067 1.067v1.067c0 0.589-0.478 1.067-1.067 1.067s-1.067-0.478-1.067-1.067v-1.067zM23.395 10.010c0.51-0.295 1.163-0.12 1.457 0.39s0.12 1.163-0.39 1.457l-0.924 0.533c-0.51 0.295-1.163 0.12-1.457-0.39s-0.12-1.163 0.39-1.457l0.924-0.533zM7.538 11.857c-0.51-0.295-0.685-0.947-0.39-1.457s0.947-0.685 1.457-0.39l0.924 0.533c0.51 0.295 0.685 0.947 0.39 1.457s-0.947 0.685-1.457 0.39l-0.924-0.533z"></path>
</svg>
