<!-- Generated by IcoMoon.io -->
<svg version="1.1" xmlns="http://www.w3.org/2000/svg" width="32" height="32" viewBox="0 0 32 32">
<title>equipment_center</title>
<path d="M5.2 9.956v14.222h21.6v-14.222h-21.6zM4.686 6.908h22.629c1.42 0 2.571 1.137 2.571 2.54v15.238c0 1.403-1.151 2.54-2.571 2.54h-22.629c-1.42 0-2.571-1.137-2.571-2.54v-15.238c0-1.403 1.151-2.54 2.571-2.54zM3.657 18.59c-0.852 0-1.543-0.682-1.543-1.524s0.691-1.524 1.543-1.524h23.994c0.852 0 1.543 0.682 1.543 1.524s-0.691 1.524-1.543 1.524h-23.994zM20.629 14.527c-0.852 0-1.543-0.682-1.543-1.524s0.691-1.524 1.543-1.524h3.086c0.852 0 1.543 0.682 1.543 1.524s-0.691 1.524-1.543 1.524h-3.086zM20.629 22.654c-0.852 0-1.543-0.682-1.543-1.524s0.691-1.524 1.543-1.524h3.086c0.852 0 1.543 0.682 1.543 1.524s-0.691 1.524-1.543 1.524h-3.086z"></path>
</svg>
