<!-- Generated by IcoMoon.io -->
<svg version="1.1" xmlns="http://www.w3.org/2000/svg" width="32" height="32" viewBox="0 0 32 32">
<title>user</title>
<path d="M12.12 15.082c-1.274-0.834-2.116-2.274-2.116-3.911 0-2.58 2.091-4.671 4.671-4.671s4.671 2.091 4.671 4.671c0 1.636-0.842 3.076-2.116 3.911 3.263 1.073 5.619 4.145 5.619 7.767v1.168c0 0.645-0.523 1.168-1.168 1.168h-14.013c-0.645 0-1.168-0.523-1.168-1.168v-1.168c0-3.622 2.356-6.694 5.619-7.767zM14.675 13.507c1.29 0 2.335-1.046 2.335-2.335s-1.046-2.335-2.335-2.335c-1.29 0-2.335 1.046-2.335 2.335s1.046 2.335 2.335 2.335zM20.368 22.849c0-3.121-2.53-5.651-5.651-5.651s-5.651 2.53-5.651 5.651h11.301z"></path>
</svg>
