<!-- Generated by IcoMoon.io -->
<svg version="1.1" xmlns="http://www.w3.org/2000/svg" width="32" height="32" viewBox="0 0 32 32">
<title>navigation_001</title>
<path d="M20.267 8.533v-0.533c0-0.295 0.239-0.533 0.533-0.533h3.2c0.295 0 0.533 0.239 0.533 0.533v3.2c0 0.295-0.239 0.533-0.533 0.533h-3.2c-0.295 0-0.533-0.239-0.533-0.533v-0.533h-2.14v4.267h2.14v-0.533c0-0.295 0.239-0.533 0.533-0.533h3.2c0.295 0 0.533 0.239 0.533 0.533v3.2c0 0.295-0.239 0.533-0.533 0.533h-3.2c-0.295 0-0.533-0.239-0.533-0.533v-0.533h-2.14v4.267h2.14v-0.533c0-0.295 0.239-0.533 0.533-0.533h3.2c0.295 0 0.533 0.239 0.533 0.533v3.2c0 0.295-0.239 0.533-0.533 0.533h-3.2c-0.295 0-0.533-0.239-0.533-0.533v-0.533h-3.204c-0.587 0-1.063-0.478-1.063-1.067v-5.333h-2.133v3.2c0 0.589-0.478 1.067-1.067 1.067h-4.267c-0.589 0-1.067-0.478-1.067-1.067v-8.533c0-0.589 0.478-1.067 1.067-1.067h4.267c0.589 0 1.067 0.478 1.067 1.067v3.2h2.133v-5.333c0-0.589 0.476-1.067 1.063-1.067h3.204zM9.6 12.8v6.4h2.133v-6.4h-2.133z"></path>
</svg>
