<!-- Generated by IcoMoon.io -->
<svg version="1.1" xmlns="http://www.w3.org/2000/svg" width="32" height="32" viewBox="0 0 32 32">
<title>navigation_002</title>
<path d="M9.665 16.912l1.659-0.497c0.376-0.113 0.783-0.010 1.061 0.268l2.075 2.076 1.933 0.638c0.418 0.138 0.708 0.518 0.731 0.957l0.101 1.93c2.949-0.571 5.176-3.167 5.176-6.283 0-0.44-0.044-0.87-0.129-1.286l-1.156 0.415-0.903 2.709c-0.186 0.558-0.789 0.86-1.347 0.675l-3.221-1.067c-0.16-0.053-0.304-0.143-0.423-0.262l-2.112-2.133c-0.322-0.325-0.401-0.819-0.196-1.228l0.896-1.792-0.426-1.874c-2.229 1.001-3.782 3.24-3.782 5.842 0 0.31 0.022 0.614 0.065 0.912zM10.316 18.944c0.933 1.797 2.692 3.095 4.775 3.392l-0.060-1.142-1.481-0.489c-0.158-0.052-0.302-0.141-0.42-0.259l-1.804-1.805-1.009 0.303zM15.448 9.623l0.525 2.308c0.055 0.241 0.024 0.493-0.086 0.714l-0.725 1.449 1.394 1.408 1.968 0.652 0.73-2.19c0.103-0.31 0.343-0.556 0.651-0.667l1.593-0.572c-1.117-1.871-3.162-3.125-5.5-3.125-0.186 0-0.37 0.008-0.552 0.023zM16 24.533c-4.713 0-8.533-3.82-8.533-8.533s3.82-8.533 8.533-8.533c4.713 0 8.533 3.82 8.533 8.533s-3.82 8.533-8.533 8.533z"></path>
</svg>
