<!-- Generated by IcoMoon.io -->
<svg version="1.1" xmlns="http://www.w3.org/2000/svg" width="32" height="32" viewBox="0 0 32 32">
<title>authorization</title>
<path d="M23.704 19.798v-13.042h-15.407v13.042l7.704 5.136 7.704-5.136zM15.145 28.067l-9.244-6.163c-0.429-0.286-0.686-0.767-0.686-1.282v-15.407c0-0.851 0.69-1.541 1.541-1.541h18.489c0.851 0 1.541 0.69 1.541 1.541v15.407c0 0.515-0.257 0.996-0.686 1.282l-9.244 6.163c-0.518 0.345-1.192 0.345-1.709 0zM19.419 10.415l-5.088 6.36-1.864-1.864c-0.602-0.602-1.577-0.602-2.179 0s-0.602 1.577 0 2.179l3.081 3.081c0.649 0.649 1.719 0.59 2.293-0.127l6.163-7.704c0.532-0.664 0.424-1.634-0.241-2.166s-1.634-0.424-2.166 0.241z"></path>
</svg>
