<!-- Generated by IcoMoon.io -->
<svg version="1.1" xmlns="http://www.w3.org/2000/svg" width="32" height="32" viewBox="0 0 32 32">
<title>navigation_003</title>
<path d="M8.533 11.733v-0.533c0-0.295 0.239-0.533 0.533-0.533h13.867c0.295 0 0.533 0.239 0.533 0.533v6.158c0 3.974-3.354 7.176-7.467 7.176s-7.467-3.201-7.467-7.176v-5.624zM10.667 13.867v3.491c0 2.773 2.377 5.042 5.333 5.042s5.333-2.269 5.333-5.042v-3.491h-10.667zM8.533 9.067v-1.067c0-0.295 0.239-0.533 0.533-0.533h13.867c0.295 0 0.533 0.239 0.533 0.533v1.067c0 0.295-0.239 0.533-0.533 0.533h-13.867c-0.295 0-0.533-0.239-0.533-0.533zM16 20.267c-1.178 0-2.133-0.955-2.133-2.133s0.955-2.133 2.133-2.133c1.178 0 2.133 0.955 2.133 2.133s-0.955 2.133-2.133 2.133zM18.667 16c-0.295 0-0.533-0.239-0.533-0.533s0.239-0.533 0.533-0.533c0.295 0 0.533 0.239 0.533 0.533s-0.239 0.533-0.533 0.533z"></path>
</svg>
