<!-- Generated by IcoMoon.io -->
<svg version="1.1" xmlns="http://www.w3.org/2000/svg" width="32" height="32" viewBox="0 0 32 32">
<title>deale_manager</title>
<path d="M23.893 25.707h-15.787v-7.253l-2.773-1.387v9.067c0 1.28 1.067 2.347 2.347 2.347h16.64c1.28 0 2.347-1.067 2.347-2.347v-9.067l-2.773 1.387v7.253z"></path>
<path d="M23.36 3.52h-14.72c-2.773 0-5.12 2.24-5.12 5.12v3.733c0 1.813 0.96 3.52 2.56 4.373s3.52 0.853 5.12-0.107l1.067-0.96c0.32 0.32 0.533 0.533 0.747 0.747l0.427 0.32c0.747 0.427 1.6 0.64 2.56 0.64s1.813-0.213 2.667-0.747l1.067-0.96c0.32 0.32 0.533 0.533 0.747 0.64l0.427 0.32c1.6 0.853 3.52 0.853 5.12 0s2.56-2.56 2.56-4.373v-3.627c-0.107-2.88-2.347-5.12-5.227-5.12zM25.707 8.64v3.733c0 0.96-0.64 1.92-1.6 2.24s-2.027 0-2.56-0.853l-1.813-2.453-1.813 2.453c-0.427 0.64-1.067 0.96-1.813 0.96 0 0 0 0 0 0-0.747 0-1.387-0.32-1.813-0.96l-1.813-2.453-1.813 2.453c-0.427 0.64-1.067 0.96-1.813 0.96-1.28 0-2.347-1.067-2.347-2.347v-3.733c0-1.28 1.067-2.347 2.347-2.347h14.827c0.96 0 2.027 1.067 2.027 2.347z"></path>
</svg>
