<!-- Generated by IcoMoon.io -->
<svg version="1.1" xmlns="http://www.w3.org/2000/svg" width="32" height="32" viewBox="0 0 32 32">
<title>member_manager</title>
<path d="M20.718 16.71c-1.044 0.369-1.966 0.993-2.692 1.799-0.953-0.456-2.021-0.712-3.148-0.712-4.031 0-7.298 3.268-7.298 7.298h9.132c0.409 1.156 1.131 2.163 2.066 2.919h-12.657c-0.806 0-1.46-0.654-1.46-1.46v-1.46c0-4.527 2.945-8.367 7.023-9.708-1.592-1.043-2.644-2.843-2.644-4.888 0-3.225 2.614-5.839 5.839-5.839s5.839 2.614 5.839 5.839c0 2.046-1.052 3.845-2.644 4.888 0.951 0.313 1.841 0.762 2.646 1.324zM14.877 13.418c1.612 0 2.919-1.307 2.919-2.919s-1.307-2.919-2.919-2.919c-1.612 0-2.919 1.307-2.919 2.919s1.307 2.919 2.919 2.919z"></path>
<path d="M21.742 17.938c0.783-0.183 1.609-0.183 2.411 0.019-0.050 0.598 0.24 1.2 0.794 1.52 0.545 0.315 1.199 0.272 1.69-0.056 0.562 0.601 0.963 1.321 1.182 2.092-0.519 0.264-0.874 0.803-0.874 1.425 0 0.617 0.35 1.153 0.862 1.419-0.112 0.379-0.271 0.752-0.477 1.11s-0.451 0.682-0.724 0.969c-0.487-0.31-1.125-0.345-1.659-0.037-0.538 0.311-0.827 0.887-0.798 1.468-0.778 0.195-1.602 0.209-2.403 0.022 0.038-0.588-0.251-1.175-0.796-1.49-0.554-0.32-1.219-0.27-1.712 0.071-0.576-0.593-0.989-1.308-1.222-2.078 0.552-0.252 0.935-0.809 0.935-1.455 0-0.652-0.39-1.213-0.95-1.462 0.112-0.383 0.272-0.758 0.48-1.119s0.453-0.685 0.727-0.973c0.495 0.361 1.176 0.418 1.741 0.092 0.56-0.323 0.851-0.935 0.792-1.539zM22.175 24.176c0.698 0.403 1.591 0.164 1.994-0.534s0.164-1.591-0.534-1.994c-0.698-0.403-1.591-0.164-1.994 0.534s-0.164 1.591 0.534 1.994z"></path>
</svg>
