<!-- Generated by IcoMoon.io -->
<svg version="1.1" xmlns="http://www.w3.org/2000/svg" width="32" height="32" viewBox="0 0 32 32">
<title>navigation_006</title>
<path d="M23.467 12.86v8.474c0 1.767-1.433 3.2-3.2 3.2h-8.533c-1.767 0-3.2-1.433-3.2-3.2v-10.667c0-1.767 1.433-3.2 3.2-3.2h6.34c0.283-0.018 0.578 0.076 0.814 0.312l4.267 4.267c0.236 0.236 0.33 0.531 0.312 0.814zM21.333 13.867h-3.2c-0.589 0-1.067-0.478-1.067-1.067v-3.2h-5.333c-0.589 0-1.067 0.478-1.067 1.067v10.667c0 0.589 0.478 1.067 1.067 1.067h8.533c0.589 0 1.067-0.478 1.067-1.067v-7.467zM12.8 12.8h2.133c0.589 0 1.067 0.478 1.067 1.067s-0.478 1.067-1.067 1.067h-2.133c-0.589 0-1.067-0.478-1.067-1.067s0.478-1.067 1.067-1.067zM12.8 17.067h6.4c0.589 0 1.067 0.478 1.067 1.067s-0.478 1.067-1.067 1.067h-6.4c-0.589 0-1.067-0.478-1.067-1.067s0.478-1.067 1.067-1.067z"></path>
</svg>
