<!-- Generated by IcoMoon.io -->
<svg version="1.1" xmlns="http://www.w3.org/2000/svg" width="32" height="32" viewBox="0 0 32 32">
<title>right_circle</title>
<path d="M16 24.533c-4.713 0-8.533-3.82-8.533-8.533s3.82-8.533 8.533-8.533c4.713 0 8.533 3.82 8.533 8.533s-3.82 8.533-8.533 8.533zM18.446 13.112l-3.512 3.512-1.379-1.379c-0.417-0.417-1.092-0.417-1.508 0s-0.417 1.092 0 1.509l2.133 2.133c0.417 0.417 1.092 0.417 1.508 0l4.267-4.267c0.417-0.417 0.417-1.092 0-1.508s-1.092-0.417-1.509 0z"></path>
</svg>
