<!-- Generated by IcoMoon.io -->
<svg version="1.1" xmlns="http://www.w3.org/2000/svg" width="32" height="32" viewBox="0 0 32 32">
<title>alarm_cricle</title>
<path d="M20.267 21.305h0.711c0.393 0 0.711-0.31 0.711-0.693s-0.318-0.693-0.711-0.693h-0.711v-3.519c0-2.271-1.913-4.107-4.267-4.107s-4.267 1.837-4.267 4.107v3.519h-0.711c-0.393 0-0.711 0.31-0.711 0.693s0.318 0.693 0.711 0.693h9.244zM16 27.733c-6.48 0-11.733-5.253-11.733-11.733s5.253-11.733 11.733-11.733c6.48 0 11.733 5.253 11.733 11.733s-5.253 11.733-11.733 11.733zM15.289 10.211v0.693c0 0.383 0.318 0.693 0.711 0.693s0.711-0.31 0.711-0.693v-0.693c0-0.383-0.318-0.693-0.711-0.693s-0.711 0.31-0.711 0.693zM20.922 11.849l-0.6 0.347c-0.332 0.191-0.441 0.622-0.245 0.963s0.624 0.461 0.956 0.269l0.6-0.347c0.332-0.191 0.441-0.622 0.245-0.963s-0.624-0.461-0.956-0.269zM10.366 13.080l0.6 0.347c0.332 0.191 0.76 0.071 0.956-0.269s0.087-0.771-0.245-0.963l-0.6-0.347c-0.332-0.191-0.76-0.071-0.956 0.269s-0.087 0.771 0.245 0.963zM17.422 17.145c0 0.383-0.318 0.693-0.711 0.693s-0.711-0.31-0.711-0.693c0-0.383-0.318-0.693-0.711-0.693s-0.711-0.31-0.711-0.693c0-0.383 0.318-0.693 0.711-0.693 1.178 0 2.133 0.931 2.133 2.080z"></path>
</svg>
