<!-- Generated by IcoMoon.io -->
<svg version="1.1" xmlns="http://www.w3.org/2000/svg" width="32" height="32" viewBox="0 0 32 32">
<title>alarm</title>
<path d="M6.756 24v-7.038c0-4.542 4.144-8.215 9.244-8.215s9.244 3.673 9.244 8.215v7.038h1.541c0.851 0 1.541 0.621 1.541 1.387s-0.69 1.387-1.541 1.387h-21.57c-0.851 0-1.541-0.621-1.541-1.387s0.69-1.387 1.541-1.387h1.541zM22.163 16.962c0-3.001-2.754-5.442-6.163-5.442s-6.163 2.441-6.163 5.442v7.038h12.326v-7.038zM19.081 18.453c0 0.766-0.69 1.387-1.541 1.387s-1.541-0.621-1.541-1.387c0-0.766-0.69-1.387-1.541-1.387s-1.541-0.621-1.541-1.387c0-0.766 0.69-1.387 1.541-1.387 2.553 0 4.622 1.863 4.622 4.16zM14.459 4.587c0-0.766 0.69-1.387 1.541-1.387s1.541 0.621 1.541 1.387v1.387c0 0.766-0.69 1.387-1.541 1.387s-1.541-0.621-1.541-1.387v-1.387zM26.615 7.759c0.663-0.383 1.546-0.096 1.971 0.641s0.233 1.645-0.431 2.028l-1.201 0.693c-0.663 0.383-1.546 0.096-1.971-0.641s-0.233-1.645 0.431-2.028l1.201-0.693zM3.844 10.428c-0.663-0.383-0.856-1.291-0.431-2.028s1.308-1.024 1.971-0.641l1.201 0.693c0.663 0.383 0.856 1.291 0.431 2.028s-1.308 1.024-1.971 0.641l-1.201-0.693z"></path>
</svg>
