<!-- Generated by IcoMoon.io -->
<svg version="1.1" xmlns="http://www.w3.org/2000/svg" width="32" height="32" viewBox="0 0 32 32">
<title>exclamation_circle</title>
<path d="M16 24.533c-4.713 0-8.533-3.82-8.533-8.533s3.82-8.533 8.533-8.533c4.713 0 8.533 3.82 8.533 8.533s-3.82 8.533-8.533 8.533zM14.933 12.8v3.2c0 0.589 0.478 1.067 1.067 1.067s1.067-0.478 1.067-1.067v-3.2c0-0.589-0.478-1.067-1.067-1.067s-1.067 0.478-1.067 1.067zM16 20.267c0.589 0 1.067-0.478 1.067-1.067s-0.478-1.067-1.067-1.067c-0.589 0-1.067 0.478-1.067 1.067s0.478 1.067 1.067 1.067z"></path>
</svg>
