<!-- Generated by IcoMoon.io -->
<svg version="1.1" xmlns="http://www.w3.org/2000/svg" width="32" height="32" viewBox="0 0 32 32">
<title>message_cricle</title>
<path d="M16 27.733c-6.48 0-11.733-5.253-11.733-11.733s5.253-11.733 11.733-11.733c6.48 0 11.733 5.253 11.733 11.733s-5.253 11.733-11.733 11.733zM21.92 20.16l-1.92-1.12c-0.267-0.16-0.587-0.053-0.747 0.213l-0.053 0.053c-0.16 0.267-0.053 0.587 0.213 0.747l1.92 1.12c0.267 0.16 0.587 0.053 0.747-0.213l0.053-0.053c0.16-0.267 0.053-0.64-0.213-0.747zM16.48 10.771l-3.52 2.507c-0.373 0.267-0.853 0.373-1.28 0.373h-1.547c-0.32 0-0.533 0.267-0.533 0.533v3.574c0 0.32 0.267 0.533 0.533 0.533h1.493c0.48 0 0.907 0.16 1.28 0.427l3.573 2.507c0.107 0.053 0.213 0.107 0.32 0.107 0.32 0 0.533-0.267 0.533-0.533v-9.602c0-0.107-0.053-0.213-0.107-0.32-0.16-0.213-0.48-0.267-0.747-0.107zM19.253 12.745c0.16 0.267 0.48 0.373 0.747 0.213l1.92-1.12c0.267-0.16 0.373-0.48 0.213-0.747l-0.053-0.053c-0.16-0.267-0.48-0.373-0.747-0.213l-1.92 1.12c-0.213 0.16-0.32 0.533-0.16 0.8zM22.933 15.252h-2.24c-0.32 0-0.533 0.267-0.533 0.533v0.053c0 0.32 0.267 0.533 0.533 0.533h2.24c0.32 0 0.533-0.267 0.533-0.533 0-0.32-0.267-0.587-0.533-0.587z"></path>
</svg>
