<!-- Generated by IcoMoon.io -->
<svg version="1.1" xmlns="http://www.w3.org/2000/svg" width="32" height="32" viewBox="0 0 32 32">
<title>wrong_circle</title>
<path d="M16 14.492l-1.508-1.508c-0.417-0.417-1.092-0.417-1.508 0s-0.417 1.092 0 1.508l1.508 1.508-1.508 1.509c-0.417 0.417-0.417 1.092 0 1.509s1.092 0.417 1.508 0l1.508-1.509 1.509 1.509c0.417 0.417 1.092 0.417 1.509 0s0.417-1.092 0-1.509l-1.509-1.509 1.509-1.508c0.417-0.417 0.417-1.092 0-1.508s-1.092-0.417-1.509 0l-1.509 1.508zM16 24.533c-4.713 0-8.533-3.82-8.533-8.533s3.82-8.533 8.533-8.533c4.713 0 8.533 3.82 8.533 8.533s-3.82 8.533-8.533 8.533z"></path>
</svg>
