<!-- Generated by IcoMoon.io -->
<svg version="1.1" xmlns="http://www.w3.org/2000/svg" width="32" height="32" viewBox="0 0 32 32">
<title>navigation_005</title>
<path d="M21.333 18.629v-9.029h-10.667v9.029l5.333 3.556 5.333-3.556zM15.408 24.354l-6.4-4.267c-0.297-0.198-0.475-0.531-0.475-0.888v-10.667c0-0.589 0.478-1.067 1.067-1.067h12.8c0.589 0 1.067 0.478 1.067 1.067v10.667c0 0.357-0.178 0.69-0.475 0.888l-6.4 4.267c-0.358 0.239-0.825 0.239-1.183 0zM18.367 12.134l-3.522 4.403-1.291-1.291c-0.417-0.417-1.092-0.417-1.508 0s-0.417 1.092 0 1.508l2.133 2.133c0.45 0.45 1.19 0.409 1.587-0.088l4.267-5.333c0.368-0.46 0.293-1.131-0.167-1.499s-1.131-0.293-1.499 0.167z"></path>
</svg>
