<!-- Generated by IcoMoon.io -->
<svg version="1.1" xmlns="http://www.w3.org/2000/svg" width="32" height="32" viewBox="0 0 32 32">
<title>message</title>
<path d="M20.867 20.086c-0.082-0.165-0.125-0.346-0.125-0.53v-4.741c0-2.618-2.122-4.741-4.741-4.741s-4.741 2.123-4.741 4.741v4.741c0 0.184-0.043 0.365-0.125 0.53l-0.328 0.655h10.387l-0.328-0.655zM14.82 7.801c-0.003-0.032-0.004-0.065-0.004-0.098 0-0.655 0.531-1.185 1.185-1.185s1.185 0.531 1.185 1.185c0 0.033-0.001 0.065-0.004 0.098 3.365 0.563 5.93 3.489 5.93 7.013v4.461l1.060 2.12c0.394 0.788-0.179 1.715-1.060 1.715h-14.222c-0.881 0-1.454-0.927-1.060-1.715l1.060-2.12v-4.461c0-3.525 2.565-6.451 5.93-7.013zM14.224 23.704h3.556c0 0.982-0.796 1.778-1.778 1.778s-1.778-0.796-1.778-1.778z"></path>
</svg>
