<!-- Generated by IcoMoon.io -->
<svg version="1.1" xmlns="http://www.w3.org/2000/svg" width="32" height="32" viewBox="0 0 32 32">
<title>admin</title>
<path d="M19.348 16.141c-0.835 0.295-1.573 0.795-2.154 1.439-0.763-0.365-1.617-0.57-2.519-0.57-3.225 0-5.839 2.614-5.839 5.839h7.305c0.327 0.925 0.905 1.73 1.653 2.335h-10.126c-0.645 0-1.168-0.523-1.168-1.168v-1.168c0-3.622 2.356-6.694 5.619-7.767-1.274-0.834-2.116-2.274-2.116-3.911 0-2.58 2.091-4.671 4.671-4.671s4.671 2.091 4.671 4.671c0 1.636-0.842 3.076-2.116 3.911 0.761 0.25 1.473 0.609 2.117 1.059zM14.675 13.507c1.29 0 2.335-1.046 2.335-2.335s-1.046-2.335-2.335-2.335c-1.29 0-2.335 1.046-2.335 2.335s1.046 2.335 2.335 2.335z"></path>
<path d="M25.561 19.299c-0.080-0.261-0.287-0.447-0.544-0.487l-2.126-0.393-0.951-2.010c-0.112-0.244-0.352-0.403-0.612-0.403s-0.493 0.155-0.61 0.402l-0.951 2.013-2.121 0.403c-0.258 0.041-0.468 0.228-0.547 0.488-0.080 0.258-0.011 0.547 0.177 0.74l1.526 1.482-0.4 2.16v0.002c-0.043 0.27 0.064 0.544 0.272 0.7 0.202 0.156 0.495 0.18 0.712 0.059l1.944-1 1.926 0.998c0.077 0.042 0.162 0.069 0.247 0.078v0.003h0.070c0.142 0 0.283-0.049 0.398-0.136 0.21-0.16 0.319-0.437 0.274-0.707l-0.387-2.156 1.533-1.503c0.182-0.186 0.25-0.475 0.17-0.731z"></path>
</svg>
