<!-- Generated by IcoMoon.io -->
<svg version="1.1" xmlns="http://www.w3.org/2000/svg" width="32" height="32" viewBox="0 0 32 32">
<title>login_code</title>
<path d="M24.474 10.489c-0.019-0.588-0.506-1.143-1.082-1.244 0 0-2.235-0.353-3.489-0.799-1.566-0.556-3.115-1.78-3.115-1.78-0.483-0.345-1.225-0.323-1.673 0.049 0 0-1.097 1.105-3.144 1.751-1.891 0.759-3.402 0.837-3.402 0.837-0.57 0.074-1.061 0.6-1.072 1.188 0 0-0.077 3.022 0.020 5.674 0.037 4.745 5.661 9.435 8.503 9.435 2.798 0 7.632-3.268 8.393-9.366 0.188-3.62 0.062-5.745 0.062-5.745zM20.11 14.651l-4.836 4.888c-0.206 0.208-0.556 0.232-0.792 0.044l-2.525-2.004c-0.464-0.368-0.512-1.009-0.102-1.438 0.408-0.426 1.108-0.482 1.581-0.112l1.172 0.916 4.029-3.79c0.42-0.395 1.087-0.384 1.496 0.007-0.006-0.006-0.007-0.014-0.014-0.021l0.034 0.034c-0.006-0.006-0.014-0.008-0.021-0.014 0.394 0.413 0.389 1.073-0.023 1.489z"></path>
</svg>
