<!-- Generated by IcoMoon.io -->
<svg version="1.1" xmlns="http://www.w3.org/2000/svg" width="32" height="32" viewBox="0 0 32 32">
<title>power_station</title>
<path d="M28.267 14.4l-9.92-9.813c-0.64-0.64-1.493-0.96-2.347-0.96-0.96 0-1.813 0.427-2.347 0.96l-9.813 9.707c-0.64 0.64-0.853 1.813-0.533 2.56 0.32 0.853 1.173 1.387 2.133 1.387h0.853v6.72c0 1.813 1.493 3.307 3.307 3.307h12.693c1.813 0 3.307-1.493 3.413-3.307v-6.72h0.853c0.96 0 1.813-0.533 2.027-1.28 0.427-0.747 0.32-1.813-0.32-2.56zM15.68 6.507c0 0 0.107-0.107 0.32-0.107 0.107 0 0.32 0 0.427 0.107l9.173 9.067h-2.56v9.387c0 0.213-0.107 0.427-0.213 0.533s-0.32 0.213-0.427 0.213h-12.8c-0.32 0-0.64-0.213-0.64-0.64v-9.493h-2.56l9.067-9.067h0.213z"></path>
<path d="M13.013 18.773h2.347l-2.133 5.547c0 0.107 0 0.213 0.107 0.213h0.213l5.76-7.253c0.213-0.213 0.213-0.32 0.107-0.533-0.213-0.213-0.32-0.32-0.533-0.32h-2.773l1.493-3.84c0.107-0.213 0-0.32-0.107-0.427-0.107-0.213-0.213-0.213-0.427-0.213h-1.92c-0.213 0-0.427 0.213-0.427 0.32l-2.24 5.867c-0.107 0.213 0 0.32 0.107 0.427s0.213 0.213 0.427 0.213z"></path>
</svg>
