<!-- Generated by IcoMoon.io -->
<svg version="1.1" xmlns="http://www.w3.org/2000/svg" width="32" height="32" viewBox="0 0 32 32">
<title>logout</title>
<path d="M16.96 16.107h4.8c0.53 0 0.96 0.43 0.96 0.96s-0.43 0.96-0.96 0.96h-4.8c-0.53 0-0.96-0.43-0.96-0.96s0.43-0.96 0.96-0.96z"></path>
<path d="M19.305 10.014c0.533 0.25 0.763 0.886 0.512 1.419s-0.886 0.763-1.419 0.512c-0.744-0.349-1.557-0.532-2.399-0.532-3.122 0-5.653 2.531-5.653 5.653s2.531 5.653 5.653 5.653c0.851 0 1.674-0.188 2.424-0.544 0.532-0.253 1.168-0.027 1.421 0.505s0.027 1.168-0.505 1.421c-1.035 0.492-2.17 0.751-3.34 0.751-4.3 0-7.787-3.486-7.787-7.787s3.486-7.787 7.787-7.787c1.156 0 2.279 0.253 3.305 0.734z"></path>
<path d="M19.872 14.818v4.309c0 0.589 0.478 1.067 1.067 1.067 0.28 0 0.55-0.11 0.749-0.308l2.183-2.155c0.419-0.414 0.424-1.089 0.010-1.508-0.003-0.003-0.006-0.007-0.010-0.010l-2.183-2.155c-0.419-0.414-1.095-0.409-1.508 0.010-0.197 0.2-0.308 0.469-0.308 0.749z"></path>
</svg>
