<!-- Generated by IcoMoon.io -->
<svg version="1.1" xmlns="http://www.w3.org/2000/svg" width="32" height="32" viewBox="0 0 32 32">
<title>report_center</title>
<path d="M26.785 11.464v12.24c0 2.553-2.069 4.622-4.622 4.622h-12.326c-2.553 0-4.622-2.069-4.622-4.622v-15.407c0-2.553 2.069-4.622 4.622-4.622h9.158c0.409-0.026 0.835 0.11 1.176 0.451l6.163 6.163c0.341 0.341 0.477 0.767 0.451 1.176zM23.704 12.919h-4.622c-0.851 0-1.541-0.69-1.541-1.541v-4.622h-7.704c-0.851 0-1.541 0.69-1.541 1.541v15.407c0 0.851 0.69 1.541 1.541 1.541h12.326c0.851 0 1.541-0.69 1.541-1.541v-10.785zM11.378 11.378h3.081c0.851 0 1.541 0.69 1.541 1.541s-0.69 1.541-1.541 1.541h-3.081c-0.851 0-1.541-0.69-1.541-1.541s0.69-1.541 1.541-1.541zM11.378 17.541h9.244c0.851 0 1.541 0.69 1.541 1.541s-0.69 1.541-1.541 1.541h-9.244c-0.851 0-1.541-0.69-1.541-1.541s0.69-1.541 1.541-1.541z"></path>
</svg>
